<?xml version="1.0" encoding="UTF-8"?>
<svg width="40" height="40" viewBox="0 0 40 40" fill="none" xmlns="http://www.w3.org/2000/svg">
    <circle cx="20" cy="20" r="20" fill="#2C2C2C"/>
    <path d="M20 12C18.9 12 18 12.9 18 14C18 15.1 18.9 16 20 16C21.1 16 22 15.1 22 14C22 12.9 21.1 12 20 12ZM20 24C17.2 24 14.8 22.6 13.5 20.4C13.5 18.8 16.7 17.9 20 17.9C23.3 17.9 26.5 18.8 26.5 20.4C25.2 22.6 22.8 24 20 24ZM20 8C23.3 8 26 10.7 26 14C26 17.3 23.3 20 20 20C16.7 20 14 17.3 14 14C14 10.7 16.7 8 20 8ZM20 16C17.3 16 12 17.3 12 20V22H28V20C28 17.3 22.7 16 20 16Z" fill="#FFD700"/>
</svg> 